<?xml version="1.0" standalone="no"?>
<!DOCTYPE svg PUBLIC "-//W3C//DTD SVG 1.1//EN" "http://www.w3.org/Graphics/SVG/1.1/DTD/svg11.dtd">

<svg width="800" height="600" version="1.1" xmlns="http://www.w3.org/2000/svg">
	<ellipse stroke="black" stroke-width="1" fill="none" cx="377.5" cy="33.5" rx="30" ry="30"/>
	<text x="353.5" y="39.5" font-family="Times New Roman" font-size="20">Begin</text>
	<ellipse stroke="black" stroke-width="1" fill="none" cx="377.5" cy="136.5" rx="30" ry="30"/>
	<text x="361.5" y="142.5" font-family="Times New Roman" font-size="20">Idle</text>
	<ellipse stroke="black" stroke-width="1" fill="none" cx="377.5" cy="136.5" rx="24" ry="24"/>
	<ellipse stroke="black" stroke-width="1" fill="none" cx="377.5" cy="349.5" rx="30" ry="30"/>
	<text x="358.5" y="355.5" font-family="Times New Roman" font-size="20">Wait</text>
	<ellipse stroke="black" stroke-width="1" fill="none" cx="377.5" cy="349.5" rx="24" ry="24"/>
	<ellipse stroke="black" stroke-width="1" fill="none" cx="377.5" cy="252.5" rx="30" ry="30"/>
	<text x="358.5" y="258.5" font-family="Times New Roman" font-size="20">Start</text>
	<ellipse stroke="black" stroke-width="1" fill="none" cx="642.5" cy="305.5" rx="30" ry="30"/>
	<text x="624.5" y="311.5" font-family="Times New Roman" font-size="20">Stop</text>
	<ellipse stroke="black" stroke-width="1" fill="none" cx="674.5" cy="553.5" rx="30" ry="30"/>
	<text x="646.5" y="559.5" font-family="Times New Roman" font-size="20">Restart</text>
	<ellipse stroke="black" stroke-width="1" fill="none" cx="51.5" cy="423.5" rx="30" ry="30"/>
	<text x="23.5" y="429.5" font-family="Times New Roman" font-size="20">Recive</text>
	<ellipse stroke="black" stroke-width="1" fill="none" cx="161.5" cy="565.5" rx="30" ry="30"/>
	<text x="141.5" y="571.5" font-family="Times New Roman" font-size="20">Send</text>
	<ellipse stroke="black" stroke-width="1" fill="none" cx="98.5" cy="199.5" rx="30" ry="30"/>
	<text x="77.5" y="205.5" font-family="Times New Roman" font-size="20">ACK</text>
	<polygon stroke="black" stroke-width="1" points="377.5,63.5 377.5,106.5"/>
	<polygon fill="black" stroke-width="1" points="377.5,106.5 382.5,98.5 372.5,98.5"/>
	<text x="322.5" y="91.5" font-family="Times New Roman" font-size="20">ON=1</text>
	<polygon stroke="black" stroke-width="1" points="377.5,166.5 377.5,222.5"/>
	<polygon fill="black" stroke-width="1" points="377.5,222.5 382.5,214.5 372.5,214.5"/>
	<text x="313.5" y="200.5" font-family="Times New Roman" font-size="20">SEN=1</text>
	<polygon stroke="black" stroke-width="1" points="377.5,282.5 377.5,319.5"/>
	<polygon fill="black" stroke-width="1" points="377.5,319.5 382.5,311.5 372.5,311.5"/>
	<text x="382.5" y="307.5" font-family="Times New Roman" font-size="20">SEN=0</text>
	<path stroke="black" stroke-width="1" fill="none" d="M 349.047,359.008 A 1535.732,1535.732 0 0 1 81.269,419.792"/>
	<polygon fill="black" stroke-width="1" points="81.269,419.792 89.865,423.681 88.532,413.77"/>
	<text x="206.5" y="419.5" font-family="Times New Roman" font-size="20">RCEN=1</text>
	<path stroke="black" stroke-width="1" fill="none" d="M 366.427,377.372 A 351.169,351.169 0 0 1 189.372,554.427"/>
	<polygon fill="black" stroke-width="1" points="189.372,554.427 198.717,555.723 194.631,546.595"/>
	<text x="299.5" y="502.5" font-family="Times New Roman" font-size="20">I2C2TRN written to</text>
	<path stroke="black" stroke-width="1" fill="none" d="M 126.207,211.003 A 1440.06,1440.06 0 0 1 352.624,332.733"/>
	<polygon fill="black" stroke-width="1" points="352.624,332.733 348.695,324.155 343.193,332.505"/>
	<text x="246.5" y="257.5" font-family="Times New Roman" font-size="20">ACKEN=0</text>
	<path stroke="black" stroke-width="1" fill="none" d="M 179.719,541.667 A 1042.069,1042.069 0 0 1 353.667,367.719"/>
	<polygon fill="black" stroke-width="1" points="353.667,367.719 344.289,368.741 350.476,376.597"/>
	<text x="163.5" y="440.5" font-family="Times New Roman" font-size="20">TRSTAT=0</text>
	<path stroke="black" stroke-width="1" fill="none" d="M 614.857,317.145 A 516.222,516.222 0 0 1 407.423,351.587"/>
	<polygon fill="black" stroke-width="1" points="614.857,317.145 605.591,315.373 609.204,324.697"/>
	<text x="498.5" y="369.5" font-family="Times New Roman" font-size="20">PEN=1</text>
	<path stroke="black" stroke-width="1" fill="none" d="M 406.879,142.536 A 401.204,401.204 0 0 1 624.636,281.407"/>
	<polygon fill="black" stroke-width="1" points="406.879,142.536 413.462,149.294 415.839,139.58"/>
	<text x="532.5" y="184.5" font-family="Times New Roman" font-size="20">PEN=0</text>
	<path stroke="black" stroke-width="1" fill="none" d="M 647.435,540.56 A 1065.14,1065.14 0 0 1 399.291,370.118"/>
	<polygon fill="black" stroke-width="1" points="647.435,540.56 642.487,532.528 638.047,541.488"/>
	<text x="439.5" y="485.5" font-family="Times New Roman" font-size="20">RSEN=1</text>
	<path stroke="black" stroke-width="1" fill="none" d="M 405.064,361.338 A 848.725,848.725 0 0 1 653.559,532.021"/>
	<polygon fill="black" stroke-width="1" points="405.064,361.338 410.304,369.182 414.412,360.065"/>
	<text x="541.5" y="426.5" font-family="Times New Roman" font-size="20">RSEN=0</text>
	<path stroke="black" stroke-width="1" fill="none" d="M 79.15,411.864 A 874.642,874.642 0 0 1 347.536,350.942"/>
	<polygon fill="black" stroke-width="1" points="347.536,350.942 339.227,346.474 339.879,356.452"/>
	<text x="146.5" y="358.5" font-family="Times New Roman" font-size="20">RCEN=0</text>
	<path stroke="black" stroke-width="1" fill="none" d="M 349.978,337.562 A 1709.247,1709.247 0 0 1 123.638,215.873"/>
	<polygon fill="black" stroke-width="1" points="123.638,215.873 127.687,224.394 133.071,215.967"/>
	<text x="139.5" y="302.5" font-family="Times New Roman" font-size="20">ACKEN=1</text>
</svg>
